# xmcd CD database file
#
# Track frame offsets:
#	150
#	24352
#	48714
#
# Disc length: 965 seconds
#
# Revision: 5
# Processed by: cddbd v1.5.1PL2 Copyright (c) Steve Scherf et al.
# Submitted via: CDex 1.51
#
DISCID=1e03c303
DTITLE=Gackt - 12月のLove song
DYEAR=2004
DGENRE=J-Pop
TTITLE0=12月のLove song
TTITLE1=December Love Song（韓国語ver）
TTITLE2=12月のLove Song(Inst)
EXTD=YEAR: 2004
EXTT0=
EXTT1=
EXTT2=
PLAYORDER=
